<svg xmlns="http://www.w3.org/2000/svg" width="367" height="239.737"><g data-name="Group 9173"><text data-name="5" transform="translate(20.818 54.012)" fill="gray" font-size="12" font-family="ArialMT, Arial"><tspan x="0" y="0">5.00</tspan></text><text data-name="4" transform="translate(20.818 82.619)" fill="gray" font-size="12" font-family="ArialMT, Arial"><tspan x="0" y="0">4.00</tspan></text><text data-name="3" transform="translate(20.818 113.67)" fill="gray" font-size="12" font-family="ArialMT, Arial"><tspan x="0" y="0">3.00</tspan></text><text data-name="2" transform="translate(20.818 145.523)" fill="gray" font-size="12" font-family="ArialMT, Arial"><tspan x="0" y="0">2.00</tspan></text><text data-name="1" transform="translate(20.818 177.379)" fill="gray" font-size="12" font-family="ArialMT, Arial"><tspan x="0" y="0">1.00</tspan></text><text data-name="0" transform="translate(20.818 209.232)" fill="gray" font-size="12" font-family="ArialMT, Arial"><tspan x="0" y="0">0.00</tspan></text><path data-name="Line 920" fill="none" stroke="#e4e5e5" stroke-miterlimit="10" d="M50.956 207.232H367"/><path data-name="Line 921" fill="none" stroke="#e4e5e5" stroke-miterlimit="10" d="M50.956 175.379h314.739"/><path data-name="Line 922" fill="none" stroke="#e4e5e5" stroke-miterlimit="10" d="M50.956 143.523h314.739"/><path data-name="Line 923" fill="none" stroke="#e4e5e5" stroke-miterlimit="10" d="M50.956 111.67h314.739"/><path data-name="Line 924" fill="none" stroke="#e4e5e5" stroke-miterlimit="10" d="M50.956 79.816h314.739"/><path data-name="Line 925" fill="none" stroke="#e4e5e5" stroke-miterlimit="10" d="M50.956 47.963h314.739"/><text data-name="Performance Rating" transform="rotate(-90 93.631 82.631)" fill="#303030" font-size="12" font-family="ArialMT, Arial"><tspan x="0" y="0">Performance Rating</tspan></text><path data-name="Line 926" fill="none" stroke="#85d7ed" stroke-miterlimit="10" stroke-width="2" opacity=".6" d="M116.5 76.5l118-28"/><path data-name="Path 1268" d="M122.163 77.618a6 6 0 11-6-6 6 6 0 016 6" fill="#f9ae42"/><path data-name="Path 1269" d="M240.862 47.962a6 6 0 11-6-6 6 6 0 016 6" fill="#f9ae42"/><text data-name="5 Exceptional" transform="translate(214.746 67.479)" fill="#303030" font-size="12" font-family="ArialMT, Arial"><tspan x="0" y="0">5 Exceptional</tspan></text><text data-name="4 Exceeds Expectations" transform="translate(48.562 98.473)" fill="#303030" font-size="12" font-family="ArialMT, Arial"><tspan x="0" y="0">4 Exceeds Expectations</tspan></text><path data-name="Line 927" fill="none" stroke="#828282" stroke-miterlimit="10" stroke-width=".813" d="M67.163 206.583v-6.249"/><path data-name="Line 934" fill="none" stroke="#828282" stroke-miterlimit="10" stroke-width=".5" d="M122.476 206.583v-5.249"/><path data-name="Line 1009" fill="none" stroke="#828282" stroke-miterlimit="10" stroke-width=".5" d="M234.476 206.583v-5.249"/><path data-name="Line 1191" fill="none" stroke="#828282" stroke-miterlimit="10" stroke-width=".5" d="M345.476 206.583v-5.249"/><path data-name="Line 942" fill="none" stroke="#828282" stroke-miterlimit="10" stroke-width=".813" d="M178.789 206.583v-6.249"/><path data-name="Line 1010" fill="none" stroke="#828282" stroke-miterlimit="10" stroke-width=".813" d="M289.789 206.583v-6.249"/><text transform="translate(326.748 11)" fill="gray" font-size="12" font-family="ArialMT, Arial"><tspan x="0" y="0">Review</tspan></text><g data-name="Group 2333"><path data-name="Path 1270" d="M322.019 10.721a6 6 0 10-9.4 0 6.024 6.024 0 001.445 1.313c.028.019.058.035.087.053q.22.138.454.258c.052.026.1.05.157.075.137.065.277.125.419.18.065.024.13.049.2.071.137.047.276.088.417.125.071.018.141.038.214.055.147.033.3.057.448.079.067.009.132.023.2.03a6.055 6.055 0 00.664.039h.005a6.2 6.2 0 00.658-.039c.07-.007.137-.021.206-.031.148-.022.3-.046.441-.078.074-.017.147-.037.221-.057a5.637 5.637 0 00.608-.196q.21-.08.411-.176c.055-.026.111-.051.165-.079q.228-.117.445-.252c.031-.02.064-.038.1-.058a6.045 6.045 0 001.442-1.311z" fill="#f9ae42" fill-rule="evenodd"/></g><path data-name="Path 1290" d="M183.999 6.5a6 6 0 11-6-6 6 6 0 016 6" fill="#45e05c" stroke="#45e05c" stroke-miterlimit="10"/><path data-name="Path 1291" d="M204.999 57.001a6 6 0 11-6-6 6 6 0 016 6" fill="#45e05c" stroke="#45e05c" stroke-miterlimit="10"/><path data-name="Line 1011" fill="none" stroke="#45e05c" d="M199.5 63.5v144"/><g data-name="Group 2346"><text data-name="Position Change" transform="translate(188.785 10.999)" fill="gray" font-size="12" font-family="ArialMT, Arial"><tspan x="0" y="0">Position Change</tspan></text></g><text data-name="2018" transform="rotate(-90 155.355 84.382)" fill="gray" font-size="12" font-family="ArialMT, Arial"><tspan x="0" y="0">2018</tspan></text><text data-name="2019" transform="rotate(-90 211.263 28.473)" fill="gray" font-size="12" font-family="ArialMT, Arial"><tspan x="0" y="0">2019</tspan></text><text data-name="2020" transform="rotate(-90 266.762 -27.027)" fill="gray" font-size="12" font-family="ArialMT, Arial"><tspan x="0" y="0">2020</tspan></text></g></svg>