<svg xmlns="http://www.w3.org/2000/svg" width="756.212" height="23.5"><g data-name="Section Tabs"><text data-name="EMPLOYMENT HISTORY" transform="translate(298.5 13)" fill="#696969" font-size="14" font-family="ArialMT, Arial"><tspan x="0" y="0">EMPLOYMENT HISTORY</tspan></text><text data-name="WORK ASSIGNMENTS" transform="translate(129.5 13)" fill="#696969" font-size="14" font-family="ArialMT, Arial"><tspan x="0" y="0">WORK ASSIGNMENTS</tspan></text><text transform="translate(38.5 13)" font-size="14" font-family="ArialMT, Arial"><tspan x="0" y="0">SUMMARY</tspan></text><text transform="translate(481.797 13)" fill="#696969" font-size="14" font-family="ArialMT, Arial"><tspan x="0" y="0">EDUCATION</tspan></text><text transform="translate(582.797 13)" fill="#696969" font-size="14" font-family="ArialMT, Arial"><tspan x="0" y="0">REFERENCES</tspan></text><text transform="translate(698.797 13)" fill="#696969" font-size="14" font-family="ArialMT, Arial"><tspan x="0" y="0">PUBL</tspan></text><path data-name="Path 893" d="M27 22h69.921" fill="none" stroke="#1dafec" stroke-width="3"/><g data-name="Section Tabs"><path data-name="Line 118" fill="none" stroke="#1dafec" stroke-width="3" d="M28 22h92.5"/><path d="M9 0a9 9 0 11-9 9 9.016 9.016 0 019-9zM4.292 8.458a.729.729 0 000 1.042l5.333 5.333a.729.729 0 001.042 0l1.208-1.208a.729.729 0 000-1.042L8.25 9l3.583-3.583a.729.729 0 000-1.042l-1.167-1.25a.729.729 0 00-1.042 0z" fill="#b7b7b7"/><path d="M747.212 18a9 9 0 119-9 9.016 9.016 0 01-9 9zm4.708-8.458a.729.729 0 000-1.042l-5.291-5.375a.729.729 0 00-1.042 0l-1.208 1.208a.729.729 0 000 1.042l3.583 3.583-3.583 3.584a.729.729 0 000 1.042l1.208 1.208a.729.729 0 001.042 0z" fill="#1dafec"/></g></g></svg>