<svg xmlns="http://www.w3.org/2000/svg" width="14" height="14"><path data-name="Path 1065" d="M13.692 12.435a2.625 2.625 0 01-1.213 1.054 3.8 3.8 0 01-1.85.507 7.638 7.638 0 01-2.605-.686 9.223 9.223 0 01-1.74-.825 16.79 16.79 0 01-4.773-4.772 9.3 9.3 0 01-.825-1.74A7.656 7.656 0 010 3.373a3.8 3.8 0 01.507-1.85A2.623 2.623 0 011.561.31 4.432 4.432 0 012.943.002a.508.508 0 01.209.03c.209.07.427.556.527.756.318.567.626 1.143.955 1.7.159.258.457.576.457.885 0 .606-1.8 1.491-1.8 2.027a2.133 2.133 0 00.388.856 9.9 9.9 0 004.067 4.067 2.127 2.127 0 00.855.388c.537 0 1.422-1.8 2.028-1.8.309 0 .627.3.885.458.557.328 1.134.636 1.7.954.2.1.686.318.756.527a.51.51 0 01.03.208 4.423 4.423 0 01-.308 1.377z" fill="#fff"/></svg>