<svg xmlns="http://www.w3.org/2000/svg" width="14" height="11"><path data-name="Path 1064" d="M12.664 3.39c-1.219.844-2.445 1.688-3.656 2.539-.508.351-1.368 1.07-2 1.07h-.016c-.632 0-1.492-.719-2-1.07-1.211-.852-2.437-1.7-3.648-2.539A3.046 3.046 0 010 1.421 1.267 1.267 0 011.25-.001h11.5A1.259 1.259 0 0114 1.249a2.819 2.819 0 01-1.336 2.141zM14 9.75A1.254 1.254 0 0112.75 11H1.25A1.254 1.254 0 010 9.75v-6.2a4.369 4.369 0 00.789.68c1.3.883 2.61 1.765 3.883 2.7a4.28 4.28 0 002.32 1.078h.016a4.28 4.28 0 002.32-1.078c1.273-.922 2.586-1.812 3.891-2.7A4.591 4.591 0 0014 3.55z" fill="#fff"/></svg>