<svg xmlns="http://www.w3.org/2000/svg" width="16" height="16"><path data-name="Path 364" d="M16 3v10a3 3 0 01-3 3H3a3.005 3.005 0 01-3-3V3a3.005 3.005 0 013-3h10a3 3 0 013 3zm-10.969.937a1.23 1.23 0 00-.375-.9 1.336 1.336 0 00-.969-.354 1.386 1.386 0 00-.984.354 1.172 1.172 0 00-.381.9 1.194 1.194 0 00.37.891 1.323 1.323 0 00.964.359h.01a1.369 1.369 0 00.99-.359 1.184 1.184 0 00.375-.891zm-2.562 9.459h2.406V6.167H2.469zm8.656 0h2.407V9.25a3.461 3.461 0 00-.76-2.427A2.61 2.61 0 0010.761 6a2.422 2.422 0 00-2.177 1.218h.021V6.166H6.198q.031.687 0 7.229h2.41V9.353a1.739 1.739 0 01.073-.584 1.613 1.613 0 01.469-.619 1.178 1.178 0 01.77-.255q1.208 0 1.208 1.636z" fill="#fff"/></svg>