<svg xmlns="http://www.w3.org/2000/svg" width="16" height="15.999"><path data-name="Path 365" d="M16 2.999v10a3 3 0 01-3 3H3a3 3 0 01-3-3v-10a3 3 0 013-3h10a3 3 0 013 3zm-3.76 3.157a4.26 4.26 0 001.094-1.136 4.613 4.613 0 01-1.26.354 2.125 2.125 0 00.968-1.218 4.344 4.344 0 01-1.4.531A2.079 2.079 0 0010.048 4 2.188 2.188 0 007.86 6.188a1.967 1.967 0 00.053.5 6.266 6.266 0 01-4.521-2.291 2.169 2.169 0 00-.3 1.1A2.061 2.061 0 004.04 7.32a2.583 2.583 0 01-1.042-.271v.021a2.077 2.077 0 00.521 1.39 2.187 2.187 0 001.281.756 2.039 2.039 0 01-.531.084 2.863 2.863 0 01-.406-.042 2.223 2.223 0 00.776 1.083 2.078 2.078 0 001.266.438 4.325 4.325 0 01-2.718.937 4.185 4.185 0 01-.521-.032 6.137 6.137 0 003.354.979 6.373 6.373 0 002.188-.369 5.622 5.622 0 001.75-.99 6.556 6.556 0 001.256-1.427 6.31 6.31 0 001.036-3.443 2.636 2.636 0 00-.011-.281z" fill="#fff"/></svg>