<svg xmlns="http://www.w3.org/2000/svg" width="30" height="30"><g data-name="Group 2247" transform="translate(-985 -630)"><circle data-name="Ellipse 81" cx="15" cy="15" r="15" transform="translate(985 630)" fill="#ff7bac"/><path data-name="Path 1221" d="M995.641 650.24a.564.564 0 01-.561.56h-2.519a.564.564 0 01-.561-.56v-5.6a.564.564 0 01.561-.56h2.519a.564.564 0 01.561.56zm-1.961-1.68a.56.56 0 10.56.56.564.564 0 00-.56-.56zm11.839-2.616a2.352 2.352 0 01.131.665 3.764 3.764 0 00-.376 2.222 1.782 1.782 0 01-.473.822 2.113 2.113 0 01-.428 1.584 2.168 2.168 0 01-1.724.683h-1.124a10.487 10.487 0 01-3.378-.735 6.054 6.054 0 00-1.381-.385.575.575 0 01-.561-.56v-5.608a.586.586 0 01.534-.561c.324-.026 1.163-1.067 1.549-1.574a12.07 12.07 0 01.884-1.05 2.643 2.643 0 00.542-1.374 2.561 2.561 0 01.578-1.426.556.556 0 01.393-.166c1.961 0 1.961 1.566 1.961 2.24a3.433 3.433 0 01-.49 1.68 2.067 2.067 0 00-.254.56h2.424a1.7 1.7 0 011.68 1.681 2.069 2.069 0 01-.486 1.302z" fill="#fff"/></g></svg>