<svg xmlns="http://www.w3.org/2000/svg" width="30" height="28"><g data-name="Group 2246"><path data-name="Path 1165" d="M5.126 16H3.031c-1.561 0-3.03-.75-3.03-2.484C.001 12.251-.046 8 1.938 8c.328 0 1.953 1.332 4.063 1.332a6.277 6.277 0 002.079-.359A7.467 7.467 0 008.001 10a7.066 7.066 0 001.265 4 5.526 5.526 0 00-4.14 2zm.875-8a4 4 0 114-4 4.008 4.008 0 01-4 4zm15.828 20H8.172a3.832 3.832 0 01-4.171-4.047c0-3.532.828-8.953 5.407-8.953.531 0 2.468 2.172 5.593 2.172S20.064 15 20.594 15c4.579 0 5.407 5.421 5.407 8.953A3.832 3.832 0 0121.828 28zm-6.828-12a6 6 0 116-6 6 6 0 01-6 6zm9-8a4 4 0 114-4 4.008 4.008 0 01-4 4zm2.969 8h-2.095a5.526 5.526 0 00-4.14-2A7.066 7.066 0 0022 10a7.467 7.467 0 00-.079-1.031 6.276 6.276 0 002.08.363c2.109 0 3.735-1.328 4.063-1.328 1.984 0 1.937 4.251 1.937 5.516 0 1.73-1.47 2.48-3.031 2.48z" fill="#2d58a8"/><path data-name="Rectangle 1155" fill="#fff" d="M0 21.107h30v5.974H0z"/><path data-name="Rectangle 1156" fill="#2d58a8" d="M0 22.026h30V28H0z"/><path data-name="Path 1166" d="M6.378 24.456l-1.12 1.093.266 1.543a.483.483 0 010 .062c0 .08-.037.154-.126.154a.25.25 0 01-.123-.037l-1.386-.729-1.386.729a.26.26 0 01-.123.037c-.09 0-.13-.074-.13-.154a.488.488 0 01.006-.062l.266-1.543-1.124-1.093a.241.241 0 01-.077-.148c0-.093.1-.13.173-.142l1.55-.225.694-1.4c.028-.058.08-.126.151-.126s.123.068.151.126l.694 1.4 1.55.225c.074.012.173.049.173.142a.23.23 0 01-.079.148z" fill="#fff"/><path data-name="Path 1167" d="M11.836 24.456l-1.12 1.093.266 1.543a.483.483 0 010 .062c0 .08-.037.154-.126.154a.25.25 0 01-.123-.037l-1.386-.729-1.386.729a.26.26 0 01-.123.037c-.09 0-.13-.074-.13-.154a.488.488 0 01.006-.062l.266-1.543-1.124-1.093a.241.241 0 01-.077-.148c0-.093.1-.13.173-.142l1.55-.225.694-1.4c.028-.058.08-.126.151-.126s.123.068.151.126l.694 1.4 1.55.225c.074.012.173.049.173.142a.23.23 0 01-.079.148z" fill="#fff"/><path data-name="Path 1168" d="M17.406 24.456l-1.12 1.093.266 1.543a.471.471 0 010 .062c0 .08-.037.154-.126.154a.25.25 0 01-.123-.037l-1.386-.729-1.386.729a.26.26 0 01-.123.037c-.09 0-.13-.074-.13-.154a.49.49 0 01.006-.062l.266-1.543-1.124-1.093a.241.241 0 01-.077-.148c0-.093.1-.13.173-.142l1.55-.225.694-1.4c.028-.058.08-.126.151-.126s.123.068.151.126l.694 1.4 1.55.225c.074.012.173.049.173.142a.23.23 0 01-.079.148z" fill="#fff"/><path data-name="Path 1169" d="M22.976 24.456l-1.12 1.093.266 1.543a.471.471 0 010 .062c0 .08-.037.154-.126.154a.25.25 0 01-.123-.037l-1.386-.729-1.386.729a.26.26 0 01-.123.037c-.09 0-.13-.074-.13-.154a.476.476 0 01.006-.062l.266-1.543-1.124-1.093a.241.241 0 01-.077-.148c0-.093.1-.13.173-.142l1.55-.225.694-1.4c.028-.058.08-.126.151-.126s.123.068.151.126l.694 1.4 1.55.225c.074.012.173.049.173.142a.231.231 0 01-.079.148z" fill="#fff"/><path data-name="Path 1170" d="M28.419 24.456l-1.12 1.093.266 1.543a.482.482 0 010 .062c0 .08-.037.154-.126.154a.25.25 0 01-.123-.037l-1.386-.729-1.386.729a.26.26 0 01-.123.037c-.09 0-.13-.074-.13-.154a.476.476 0 01.006-.062l.266-1.543-1.124-1.093a.241.241 0 01-.077-.148c0-.093.1-.13.173-.142l1.55-.225.694-1.4c.028-.058.08-.126.151-.126s.123.068.151.126l.694 1.4 1.55.225c.074.012.173.049.173.142a.23.23 0 01-.079.148z" fill="#fff"/></g></svg>