<svg xmlns="http://www.w3.org/2000/svg" width="31" height="25.599"><path data-name="Path 1218" d="M.2 19.531a.209.209 0 00.08.161v.04l.121.121h.04a.209.209 0 00.161.08l16 5.626a.362.362 0 00.2.04.843.843 0 00.442-.161l13.581-13.583a.6.6 0 00.161-.563.632.632 0 00-.4-.442l-.643-.161a17.609 17.609 0 01-.161-2.09 7.743 7.743 0 01.04-.965l.965-.965a.6.6 0 00.161-.563.632.632 0 00-.4-.442l-16-5.626a.571.571 0 00-.643.161L.362 13.744c-.04.04-.08.08-.08.121v.04c0 .04-.04.04-.04.08v.08a17.006 17.006 0 00-.04 5.466zm7.8-2.17l7.515 2.652a18.3 18.3 0 00-.161 2.13 13.669 13.669 0 00.121 1.808L1.808 19.129l-.482-.161a12.527 12.527 0 01-.161-2.17 13.669 13.669 0 01.121-1.808zm21.179-6.551l-.723.723-12.18 12.137c-.04-.482-.08-1-.08-1.527a13.826 13.826 0 01.121-1.849l.281.121a.362.362 0 00.2.04.843.843 0 00.442-.161l7.676-7.676 4.1-4.1v.121a13.151 13.151 0 00.161 2.171z" fill="#2d58a8"/></svg>