<svg xmlns="http://www.w3.org/2000/svg" width="31" height="26.571"><path data-name="Path 1216" d="M31 13.834H0V7.191a2.777 2.777 0 012.768-2.767h6.089V1.656a1.66 1.66 0 011.66-1.66h9.965a1.66 1.66 0 011.66 1.66v2.768h6.087a2.777 2.777 0 012.768 2.767zm0 9.964a2.777 2.777 0 01-2.771 2.773H2.768A2.777 2.777 0 010 23.803v-8.3h11.629v2.768a1.115 1.115 0 001.107 1.107h5.535a1.116 1.116 0 001.108-1.107v-2.768h11.625zM19.929 4.428V2.214h-8.857v2.214zm-2.214 13.285h-4.428v-2.214h4.428z" fill="#2d58a8"/></svg>