<svg xmlns="http://www.w3.org/2000/svg" width="20.102" height="16"><defs><clipPath id="a"><path fill="none" d="M0 0h20.102v16H0z"/></clipPath></defs><g clip-path="url(#a)"><path data-name="Path 76" d="M19.24 9.279a.418.418 0 01-.262.137h-.038a.394.394 0 01-.262-.088l-8.627-7.193-8.628 7.193a.428.428 0 01-.3.088.418.418 0 01-.262-.137l-.773-.923a.408.408 0 01.05-.561L9.102.327a1.535 1.535 0 011.9 0l3.042 2.543V.439a.394.394 0 01.4-.4h2.394a.394.394 0 01.4.4v5.086l2.73 2.27a.408.408 0 01.05.561zm-2.008 5.922a.8.8 0 01-.8.8h-4.788v-4.788H8.452v4.788H3.67a.8.8 0 01-.8-.8V9.216c0-.024.013-.05.013-.075l7.169-5.91 7.169 5.91a.156.156 0 01.013.075z" fill="#fff"/></g></svg>