<svg xmlns="http://www.w3.org/2000/svg" width="16" height="16"><defs><clipPath id="a"><path fill="none" d="M0 0h16v16H0z"/></clipPath></defs><g clip-path="url(#a)"><path data-name="Path 177" d="M8 16a8 8 0 118-8 8 8 0 01-8 8zm.208-13.333a4.232 4.232 0 00-3.865 2.219.329.329 0 00.084.438l1.376 1.042a.319.319 0 00.2.062.327.327 0 00.26-.125 4.625 4.625 0 01.9-.958 1.669 1.669 0 01.9-.25c.667 0 1.282.427 1.282.886 0 .542-.281.813-.917 1.1a2.833 2.833 0 00-1.75 2.208v.375a.329.329 0 00.334.333h2a.329.329 0 00.334-.333 1.568 1.568 0 01.791-1.031 2.893 2.893 0 001.875-2.636C12 4.093 10 2.667 8.208 2.667zM9.333 11a.329.329 0 00-.334-.333h-2a.329.329 0 00-.334.333v2a.329.329 0 00.334.333h2A.329.329 0 009.333 13z" fill="#fff"/></g></svg>