<svg xmlns="http://www.w3.org/2000/svg" width="19.409" height="16"><defs><clipPath id="a"><path fill="none" d="M0 0h19.409v16H0z"/></clipPath></defs><g clip-path="url(#a)"><path data-name="Nav_MyHR" d="M19.409 11.648v.6H15a32.04 32.04 0 00-2.317-.93.873.873 0 01-.227-.157 1.032 1.032 0 01.172-.433 4.8 4.8 0 001.08-3.3 5.856 5.856 0 00-.585-2.83 3.137 3.137 0 00-2.46-1.65c.11-1.406.68-2.945 2.9-2.945 2.543 0 2.918 2.028 2.918 3.554a3.216 3.216 0 01-.93 2.67 1.6 1.6 0 00-.363 1.125 1.2 1.2 0 00.743.718c2.96.97 3.478 2.674 3.478 3.578zm-7.347.447a1.214 1.214 0 01-.717-.743 1.74 1.74 0 01.343-1.164c.037-.043.887-.707.887-2.763 0-1.58-.359-3.678-2.789-3.678S7 5.846 7 7.425c0 2.062.855 2.725.869 2.739a1.747 1.747 0 01.363 1.188 1.208 1.208 0 01-.714.743C4.68 13.102 2.5 14.265 2.5 15.197v.8h14.521v-.8c0-.932-2.121-2.095-4.959-3.102zm-5.169-.778a.841.841 0 00.227-.16 1.053 1.053 0 00-.18-.443 4.449 4.449 0 01-1.071-3.29 5.855 5.855 0 01.585-2.83 3.13 3.13 0 012.4-1.642c-.109-1.408-.677-2.953-2.9-2.953-2.543 0-2.918 2.028-2.918 3.554 0 1.992.895 2.633.909 2.647a1.608 1.608 0 01.38 1.148 1.223 1.223 0 01-.746.717C.612 9.04 0 10.744 0 11.648v.6h4.564a31.15 31.15 0 012.329-.93z" fill="#fff" fill-rule="evenodd"/></g></svg>