<svg xmlns="http://www.w3.org/2000/svg" width="37.334" height="24"><defs><clipPath id="a"><path fill="none" d="M0 0h24v24H0z"/></clipPath><clipPath id="b"><path fill="none" d="M0 0h16v16H0z"/></clipPath></defs><g data-name="Group 121"><g transform="translate(13.334)" clip-path="url(#a)"><path data-name="Path 178" d="M14.999 10.038l-2.508 3.9c.016 0-2.6-3.9-2.6-3.9 0-.026 5.174-.066 5.108 0z" fill="#fff"/><path data-name="Path 637" d="M0 24V0h24v24z" fill="none"/></g><g data-name="User profile" transform="translate(0 3.881)" clip-path="url(#b)"><path d="M8 16a8 8 0 118-8 8 8 0 01-8 8zM8 1.5a6.492 6.492 0 00-4.813 10.857c.942-.455.6-.076 1.828-.583a14.559 14.559 0 001.559-.7l.012-1.194a2.23 2.23 0 01-.619-1.482c-.3.085-.393-.344-.41-.617s-.171-1.088.189-1.013a7.237 7.237 0 01-.1-1.309 2.383 2.383 0 012.365-1.957 2.185 2.185 0 012.355 1.957 7.306 7.306 0 01-.106 1.309c.36-.073.2.749.186 1.013s-.116.7-.41.616a2.218 2.218 0 01-.619 1.479l.011 1.188s.3.169 1.559.687c1.232.507.886.15 1.828.607A6.492 6.492 0 008.002 1.501z" fill="#fff" fill-rule="evenodd"/></g></g></svg>