<svg xmlns="http://www.w3.org/2000/svg" width="16" height="10.286"><defs><clipPath id="a"><path fill="none" d="M0 0h16v10.286H0z"/></clipPath></defs><g clip-path="url(#a)"><path data-name="Path 179" d="M11.029 5.14L15.907.261a.568.568 0 01.092.31v9.143a.565.565 0 01-.092.31zM7.586 6.974L.612.003h14.766L8.404 6.977a.579.579 0 01-.82-.003zm-7.5 3.045a.562.562 0 01-.089-.3V.576a.564.564 0 01.089-.3l4.873 4.873zm.522.267l4.746-4.75 1.841 1.841a1.127 1.127 0 001.594 0l1.841-1.841 4.745 4.75z" fill="#fff" fill-rule="evenodd"/></g></svg>