<svg xmlns="http://www.w3.org/2000/svg" width="11" height="243"><g data-name="SidebarCollapseIcon – 4"><path data-name="adjustment bar" fill="none" stroke="#bbb" d="M.5 0v243"/><g data-name="Group 2012"><path d="M1 0h8a2 2 0 012 2v36a2 2 0 01-2 2H1V0z" fill="#1e51bf" data-name="Tab - Normal"/><path data-name="Path 2113" d="M7.287 15.595a.347.347 0 01.494 0l1.018.964a.347.347 0 010 .494l-2.918 2.915 2.918 2.915a.348.348 0 010 .494l-1.018 1.018a.348.348 0 01-.494 0l-4.074-4.18a.348.348 0 010-.494z" fill="#fff"/></g><g data-name="Group 2009"><g data-name="Group 2008"><g data-name="Tab - Normal"><path data-name="Background" d="M1 0h8a2 2 0 012 2v36a2 2 0 01-2 2H1V0z" fill="#1e51bf"/></g><path data-name="Path 2113" d="M4.722 24.395a.347.347 0 01-.494 0l-1.018-.964a.347.347 0 010-.494l2.918-2.915-2.918-2.915a.348.348 0 010-.494l1.018-1.018a.348.348 0 01.494 0l4.074 4.18a.348.348 0 010 .494z" fill="#fff"/></g><g data-name="Group 1957"><path data-name="Tab - Normal" d="M1 45h8a2 2 0 012 2v36a2 2 0 01-2 2H1V45z" fill="#1e51bf"/><path data-name="Union 41" d="M4 72.5V69h3.5v3.5zm0-6V63h3.5v3.5zm0-6V57h3.5v3.5z" fill="#fff"/></g></g></g></svg>