<svg xmlns="http://www.w3.org/2000/svg" width="10.5" height="238"><defs><clipPath id="a"><path fill="none" d="M0 0h10.5v238H0z"/></clipPath></defs><g data-name="SidebarCollapseIcon – 1" clip-path="url(#a)"><path data-name="adjustment bar" fill="none" stroke="#bbb" d="M0 0v238"/><g data-name="Group 2012"><path d="M.5 0h8a2 2 0 012 2v36a2 2 0 01-2 2h-8V0z" fill="#1e51bf" data-name="Tab - Normal"/><path data-name="Path 2113" d="M6.787 15.598a.347.347 0 01.494 0l1.018.96a.347.347 0 010 .494l-2.915 2.915 2.915 2.912a.348.348 0 010 .494l-1.018 1.019a.348.348 0 01-.494 0l-4.074-4.178a.348.348 0 010-.494z" fill="#fff"/></g></g></svg>