<svg xmlns="http://www.w3.org/2000/svg" width="11.667" height="14"><path data-name="Path 245" d="M5.423 10.618L.465 5.66a.58.58 0 01.41-.994H3.5V.583A.587.587 0 014.083 0h3.5a.588.588 0 01.583.583v4.083h2.625a.588.588 0 01.583.583.582.582 0 01-.173.411l-4.959 4.958a.572.572 0 01-.82 0zM2.623 14a2.626 2.626 0 01-2.625-2.624V8.458a.3.3 0 01.292-.291c.255 0 .875-.118.875.291v2.918a1.463 1.463 0 001.458 1.458h6.421a1.463 1.463 0 001.458-1.458V8.75c0-.227-.046-.583.292-.583.255 0 .875-.118.875.291v2.918A2.626 2.626 0 019.044 14z" fill="#1e51bf"/></svg>