<svg xmlns="http://www.w3.org/2000/svg" width="11.429" height="14"><path data-name="Path 100" d="M11.429 8.571v2.858A2.572 2.572 0 018.857 14H2.571A2.572 2.572 0 010 11.429V8.57a.294.294 0 01.286-.285c.25 0 .857-.116.857.285v2.859a1.433 1.433 0 001.428 1.428h6.286a1.433 1.433 0 001.429-1.428V8.857c0-.223-.045-.572.286-.572.25 0 .857-.116.857.286zM6.116.171l4.857 4.855a.569.569 0 01.17.4.576.576 0 01-.571.574H8v4a.576.576 0 01-.571.572H4A.576.576 0 013.428 10V6H.857a.576.576 0 01-.571-.572.569.569 0 01.17-.4L5.313.171a.561.561 0 01.8 0z" fill="#1e51bf"/></svg>