<svg xmlns="http://www.w3.org/2000/svg" width="14" height="14"><path data-name="Path 1378" d="M11.533 6.312L3.845 14H.001v-3.845L7.69 2.468zm-7.338 5.665L2.023 9.805l-.841.841v.988h1.183v1.184h.989zm3.789-7.938a.217.217 0 00-.157.064L2.818 9.112a.217.217 0 00-.065.157.194.194 0 00.2.2.217.217 0 00.157-.064l5.009-5.009a.217.217 0 00.065-.157.2.2 0 00-.2-.201zm5.674.148L12.124 5.72 8.28 1.876 9.814.351A1.162 1.162 0 0110.646 0a1.2 1.2 0 01.841.351l2.172 2.163a1.227 1.227 0 01.342.841 1.191 1.191 0 01-.343.832z" fill="#1e51bf"/></svg>