<svg xmlns="http://www.w3.org/2000/svg" width="14" height="14"><path data-name="Path 35" d="M13.772 8.458a.294.294 0 00-.292-.292h-1.75a.282.282 0 00-.273.21 7.394 7.394 0 01-.483 1.066A4.653 4.653 0 017 11.666a4.658 4.658 0 01-3.172-1.257L5.077 9.16a.58.58 0 00.173-.41.587.587 0 00-.583-.583H.583A.587.587 0 000 8.75v4.083a.587.587 0 00.583.581.58.58 0 00.41-.173l1.176-1.174A6.986 6.986 0 006.964 14a6.919 6.919 0 006.8-5.478.155.155 0 00.008-.064zM14 1.166a.587.587 0 00-.583-.583.58.58 0 00-.41.173l-1.185 1.176A7.077 7.077 0 007 0 6.957 6.957 0 00.164 5.478v.064a.294.294 0 00.292.292H2.27a.282.282 0 00.273-.21 7.394 7.394 0 01.483-1.066A4.653 4.653 0 017 2.333a4.688 4.688 0 013.181 1.249L8.923 4.84a.58.58 0 00-.173.41.587.587 0 00.583.583h4.083A.587.587 0 0014 5.25z" fill="#1e51bf"/></svg>