<svg xmlns="http://www.w3.org/2000/svg" width="14" height="14"><path data-name="Path 1379" d="M11.776 13.745a.88.88 0 01-1.24 0L7 10.208l-3.536 3.537a.844.844 0 01-.62.255.844.844 0 01-.62-.255L.255 11.776a.844.844 0 01-.255-.62.844.844 0 01.255-.62L3.792 7 .255 3.464A.844.844 0 010 2.844a.844.844 0 01.255-.62L2.224.255A.844.844 0 012.844 0a.844.844 0 01.62.255L7 3.792 10.536.256a.844.844 0 01.62-.255.844.844 0 01.62.255l1.969 1.969a.844.844 0 01.255.62.844.844 0 01-.255.62L10.208 7l3.537 3.536a.844.844 0 01.255.62.844.844 0 01-.255.62z" fill="#1e51bf"/></svg>