<svg xmlns="http://www.w3.org/2000/svg" width="14" height="14"><g fill="#b7b7b7"><path data-name="Rectangle 74" d="M7.577 2.5H9.79v3.689H7.577z"/><path data-name="Path 157" d="M11.5 0H0v14h14V2.453zM2.917 1.346H10.5v3.8H2.917zm8.458 10.534H2.333V7.429h9.042z"/><path data-name="Path 158" d="M3.655 9.203h2.582a.369.369 0 000-.738H3.655a.369.369 0 000 .738z"/><path data-name="Path 159" d="M3.56 10.332h3.689a.369.369 0 100-.738H3.56a.369.369 0 100 .738z"/><path data-name="Path 160" d="M7.577 10.332a.381.381 0 00.262-.107.374.374 0 000-.524.382.382 0 00-.52 0 .367.367 0 00-.111.262.365.365 0 00.369.369z"/></g></svg>