<svg xmlns="http://www.w3.org/2000/svg" width="367" height="239.737" viewBox="0 0 367 239.737">
  <g id="Group_9173" data-name="Group 9173" transform="translate(-741 -345)">
    <text id="_5.00" data-name="5.00" transform="translate(761.818 399.012)" fill="gray" font-size="12" font-family="ArialMT, Arial"><tspan x="0" y="0">5.00</tspan></text>
    <text id="_4.00" data-name="4.00" transform="translate(761.818 427.619)" fill="gray" font-size="12" font-family="ArialMT, Arial"><tspan x="0" y="0">4.00</tspan></text>
    <text id="_3.00" data-name="3.00" transform="translate(761.818 458.67)" fill="gray" font-size="12" font-family="ArialMT, Arial"><tspan x="0" y="0">3.00</tspan></text>
    <text id="_2.00" data-name="2.00" transform="translate(761.818 490.523)" fill="gray" font-size="12" font-family="ArialMT, Arial"><tspan x="0" y="0">2.00</tspan></text>
    <text id="_1.00" data-name="1.00" transform="translate(761.818 522.379)" fill="gray" font-size="12" font-family="ArialMT, Arial"><tspan x="0" y="0">1.00</tspan></text>
    <text id="_0.00" data-name="0.00" transform="translate(761.818 554.232)" fill="gray" font-size="12" font-family="ArialMT, Arial"><tspan x="0" y="0">0.00</tspan></text>
    <line id="Line_920" data-name="Line 920" x2="316.044" transform="translate(791.956 552.232)" fill="none" stroke="#e4e5e5" stroke-miterlimit="10" stroke-width="1"/>
    <line id="Line_921" data-name="Line 921" x2="314.739" transform="translate(791.956 520.379)" fill="none" stroke="#e4e5e5" stroke-miterlimit="10" stroke-width="1"/>
    <line id="Line_922" data-name="Line 922" x2="314.739" transform="translate(791.956 488.523)" fill="none" stroke="#e4e5e5" stroke-miterlimit="10" stroke-width="1"/>
    <line id="Line_923" data-name="Line 923" x2="314.739" transform="translate(791.956 456.67)" fill="none" stroke="#e4e5e5" stroke-miterlimit="10" stroke-width="1"/>
    <line id="Line_924" data-name="Line 924" x2="314.739" transform="translate(791.956 424.816)" fill="none" stroke="#e4e5e5" stroke-miterlimit="10" stroke-width="1"/>
    <line id="Line_925" data-name="Line 925" x2="314.739" transform="translate(791.956 392.963)" fill="none" stroke="#e4e5e5" stroke-miterlimit="10" stroke-width="1"/>
    <text id="Performance_Rating" data-name="Performance Rating" transform="translate(752 521.262) rotate(-90)" fill="#303030" font-size="12" font-family="ArialMT, Arial"><tspan x="0" y="0">Performance Rating</tspan></text>
    <line id="Line_926" data-name="Line 926" y1="28" x2="118" transform="translate(857.5 393.5)" fill="none" stroke="#85d7ed" stroke-miterlimit="10" stroke-width="2" opacity="0.6"/>
    <path id="Path_1268" data-name="Path 1268" d="M455.381,273.511a6,6,0,1,1-6-6,6,6,0,0,1,6,6" transform="translate(407.782 149.107)" fill="#f9ae42"/>
    <path id="Path_1269" data-name="Path 1269" d="M655.08,241.855a6,6,0,1,1-6-6,6,6,0,0,1,6,6" transform="translate(326.782 151.107)" fill="#f9ae42"/>
    <text id="_5_Exceptional" data-name="5 Exceptional" transform="translate(955.746 412.479)" fill="#303030" font-size="12" font-family="ArialMT, Arial"><tspan x="0" y="0">5 Exceptional</tspan></text>
    <text id="_4_Exceeds_Expectations" data-name="4 Exceeds Expectations" transform="translate(789.562 443.473)" fill="#303030" font-size="12" font-family="ArialMT, Arial"><tspan x="0" y="0">4 Exceeds Expectations</tspan></text>
    <line id="Line_927" data-name="Line 927" y1="6.249" transform="translate(808.163 545.334)" fill="none" stroke="#828282" stroke-miterlimit="10" stroke-width="0.813"/>
    <line id="Line_934" data-name="Line 934" y1="5.249" transform="translate(863.476 546.334)" fill="none" stroke="#828282" stroke-miterlimit="10" stroke-width="0.5"/>
    <line id="Line_1009" data-name="Line 1009" y1="5.249" transform="translate(975.476 546.334)" fill="none" stroke="#828282" stroke-miterlimit="10" stroke-width="0.5"/>
    <line id="Line_1191" data-name="Line 1191" y1="5.249" transform="translate(1086.476 546.334)" fill="none" stroke="#828282" stroke-miterlimit="10" stroke-width="0.5"/>
    <line id="Line_942" data-name="Line 942" y1="6.249" transform="translate(919.789 545.334)" fill="none" stroke="#828282" stroke-miterlimit="10" stroke-width="0.813"/>
    <line id="Line_1010" data-name="Line 1010" y1="6.249" transform="translate(1030.789 545.334)" fill="none" stroke="#828282" stroke-miterlimit="10" stroke-width="0.813"/>
    <text id="Review" transform="translate(1067.748 356)" fill="gray" font-size="12" font-family="ArialMT, Arial"><tspan x="0" y="0">Review</tspan></text>
    <g id="Group_2333" data-name="Group 2333" transform="translate(404.782 140.107)">
      <path id="Path_1270" data-name="Path 1270" d="M639.237,222.614a6,6,0,1,0-9.4,0h0a6.024,6.024,0,0,0,1.445,1.313c.028.019.058.035.087.053q.22.138.454.258c.052.026.1.05.157.075.137.065.277.125.419.18.065.024.13.049.2.071.137.047.276.088.417.125.071.018.141.038.214.055.147.033.3.057.448.079.067.009.132.023.2.03a6.055,6.055,0,0,0,.664.039h.005a6.2,6.2,0,0,0,.658-.039c.07-.007.137-.021.206-.031.148-.022.3-.046.441-.078.074-.017.147-.037.221-.057.138-.036.274-.076.408-.122.069-.023.136-.048.2-.074q.21-.08.411-.176c.055-.026.111-.051.165-.079q.228-.117.445-.252c.031-.02.064-.038.1-.058a6.045,6.045,0,0,0,1.442-1.311v0Z" transform="translate(19 -7)" fill="#f9ae42" fill-rule="evenodd"/>
    </g>
    <path id="Path_1290" data-name="Path 1290" d="M1422.214,596.642a6,6,0,1,1-6-6,6,6,0,0,1,6,6" transform="translate(-497.215 -245.142)" fill="#45e05c" stroke="#45e05c" stroke-miterlimit="10" stroke-width="1"/>
    <path id="Path_1291" data-name="Path 1291" d="M1422.214,596.642a6,6,0,1,1-6-6,6,6,0,0,1,6,6" transform="translate(-476.215 -194.641)" fill="#45e05c" stroke="#45e05c" stroke-miterlimit="10" stroke-width="1"/>
    <line id="Line_1011" data-name="Line 1011" y2="144" transform="translate(940.5 408.5)" fill="none" stroke="#45e05c" stroke-width="1"/>
    <g id="Group_2346" data-name="Group 2346" transform="translate(-482.215 -242.642)">
      <text id="Position_Change" data-name="Position Change" transform="translate(1412 598.641)" fill="gray" font-size="12" font-family="ArialMT, Arial"><tspan x="0" y="0">Position Change</tspan></text>
    </g>
    <text id="_2018" data-name="2018" transform="translate(811.973 584.736) rotate(-90)" fill="gray" font-size="12" font-family="ArialMT, Arial"><tspan x="0" y="0">2018</tspan></text>
    <text id="_2019" data-name="2019" transform="translate(923.789 584.736) rotate(-90)" fill="gray" font-size="12" font-family="ArialMT, Arial"><tspan x="0" y="0">2019</tspan></text>
    <text id="_2020" data-name="2020" transform="translate(1034.789 584.736) rotate(-90)" fill="gray" font-size="12" font-family="ArialMT, Arial"><tspan x="0" y="0">2020</tspan></text>
  </g>
</svg>
