<svg xmlns="http://www.w3.org/2000/svg" width="16" height="15.999" viewBox="0 0 16 15.999">
  <path id="Path_365" data-name="Path 365" d="M439.987,97.868v10a3,3,0,0,1-3,3h-10a3,3,0,0,1-3-3v-10a3,3,0,0,1,3-3h10a3,3,0,0,1,3,3Zm-3.76,3.157a4.26,4.26,0,0,0,1.094-1.136,4.613,4.613,0,0,1-1.26.354,2.125,2.125,0,0,0,.968-1.218,4.344,4.344,0,0,1-1.4.531,2.079,2.079,0,0,0-1.594-.687,2.188,2.188,0,0,0-2.188,2.188,1.967,1.967,0,0,0,.053.5,6.266,6.266,0,0,1-4.521-2.291,2.169,2.169,0,0,0-.3,1.1,2.061,2.061,0,0,0,.948,1.823,2.583,2.583,0,0,1-1.042-.271v.021a2.077,2.077,0,0,0,.521,1.39,2.187,2.187,0,0,0,1.281.756,2.039,2.039,0,0,1-.531.084,2.863,2.863,0,0,1-.406-.042,2.223,2.223,0,0,0,.776,1.083,2.078,2.078,0,0,0,1.266.438,4.325,4.325,0,0,1-2.718.937,4.185,4.185,0,0,1-.521-.032,6.137,6.137,0,0,0,3.354.979,6.373,6.373,0,0,0,2.188-.369,5.622,5.622,0,0,0,1.75-.99,6.556,6.556,0,0,0,1.256-1.427,6.31,6.31,0,0,0,1.036-3.443,2.636,2.636,0,0,0-.011-.281Z" transform="translate(-423.987 -94.869)" fill="#fff"/>
</svg>
