<svg xmlns="http://www.w3.org/2000/svg" width="14" height="14" viewBox="0 0 14 14">
  <path id="Path_1065" data-name="Path 1065" d="M890.143,4293.9a2.625,2.625,0,0,1-1.213,1.054,3.8,3.8,0,0,1-1.85.507,7.638,7.638,0,0,1-2.605-.686,9.223,9.223,0,0,1-1.74-.825,16.79,16.79,0,0,1-4.773-4.772,9.3,9.3,0,0,1-.825-1.74,7.656,7.656,0,0,1-.686-2.6,3.8,3.8,0,0,1,.507-1.85,2.623,2.623,0,0,1,1.054-1.213,4.432,4.432,0,0,1,1.382-.308.508.508,0,0,1,.209.03c.209.07.427.556.527.756.318.567.626,1.143.955,1.7.159.258.457.576.457.885,0,.606-1.8,1.491-1.8,2.027a2.133,2.133,0,0,0,.388.856,9.9,9.9,0,0,0,4.067,4.067,2.127,2.127,0,0,0,.855.388c.537,0,1.422-1.8,2.028-1.8.309,0,.627.3.885.458.557.328,1.134.636,1.7.954.2.1.686.318.756.527a.51.51,0,0,1,.03.208A4.423,4.423,0,0,1,890.143,4293.9Z" transform="translate(-876.451 -4281.465)" fill="#fff"/>
</svg>
