<svg xmlns="http://www.w3.org/2000/svg" width="14" height="11" viewBox="0 0 14 11">
  <path id="Path_1064" data-name="Path 1064" d="M3289.488,3701.478c-1.219.844-2.445,1.688-3.656,2.539-.508.351-1.368,1.07-2,1.07h-.016c-.632,0-1.492-.719-2-1.07-1.211-.852-2.437-1.7-3.648-2.539a3.046,3.046,0,0,1-1.344-1.969,1.267,1.267,0,0,1,1.25-1.422h11.5a1.259,1.259,0,0,1,1.25,1.25A2.819,2.819,0,0,1,3289.488,3701.478Zm1.336,6.36a1.254,1.254,0,0,1-1.25,1.25h-11.5a1.254,1.254,0,0,1-1.25-1.25v-6.2a4.369,4.369,0,0,0,.789.68c1.3.883,2.61,1.765,3.883,2.7a4.28,4.28,0,0,0,2.32,1.078h.016a4.28,4.28,0,0,0,2.32-1.078c1.273-.922,2.586-1.812,3.891-2.7a4.591,4.591,0,0,0,.781-.68Z" transform="translate(-3276.824 -3698.088)" fill="#fff"/>
</svg>
