<svg xmlns="http://www.w3.org/2000/svg" width="16" height="16" viewBox="0 0 16 16">
  <path id="Path_364" data-name="Path 364" d="M406.992,97.869v10a3,3,0,0,1-3,3h-10a3.005,3.005,0,0,1-3-3v-10a3.005,3.005,0,0,1,3-3h10a3,3,0,0,1,3,3Zm-10.969.937a1.23,1.23,0,0,0-.375-.9,1.336,1.336,0,0,0-.969-.354,1.386,1.386,0,0,0-.984.354,1.172,1.172,0,0,0-.381.9,1.194,1.194,0,0,0,.37.891,1.323,1.323,0,0,0,.964.359h.01a1.369,1.369,0,0,0,.99-.359A1.184,1.184,0,0,0,396.023,98.806Zm-2.562,9.459h2.406v-7.229h-2.406Zm8.656,0h2.407v-4.146a3.461,3.461,0,0,0-.76-2.427,2.61,2.61,0,0,0-2.011-.823,2.422,2.422,0,0,0-2.177,1.218h.021v-1.052h-2.407q.031.687,0,7.229H399.6v-4.042a1.739,1.739,0,0,1,.073-.584,1.613,1.613,0,0,1,.469-.619,1.178,1.178,0,0,1,.77-.255q1.208,0,1.208,1.636Z" transform="translate(-390.992 -94.869)" fill="#fff"/>
</svg>
