<svg xmlns="http://www.w3.org/2000/svg" width="31" height="26.571" viewBox="0 0 31 26.571">
  <path id="Path_1216" data-name="Path 1216" d="M915.771,249h-31v-6.643a2.777,2.777,0,0,1,2.768-2.767h6.089v-2.768a1.66,1.66,0,0,1,1.66-1.66h9.965a1.66,1.66,0,0,1,1.66,1.66v2.768H913a2.777,2.777,0,0,1,2.768,2.767Zm0,9.964A2.777,2.777,0,0,1,913,261.737H887.539a2.777,2.777,0,0,1-2.768-2.768v-8.3H896.4v2.768a1.115,1.115,0,0,0,1.107,1.107h5.535a1.116,1.116,0,0,0,1.108-1.107v-2.768h11.625ZM904.7,239.594V237.38h-8.857v2.214Zm-2.214,13.285h-4.428v-2.214h4.428Z" transform="translate(-884.771 -235.166)" fill="#2d58a8"/>
</svg>
