<svg xmlns="http://www.w3.org/2000/svg" width="30" height="30" viewBox="0 0 30 30">
  <g id="Group_2247" data-name="Group 2247" transform="translate(-985 -630)">
    <circle id="Ellipse_81" data-name="Ellipse 81" cx="15" cy="15" r="15" transform="translate(985 630)" fill="#ff7bac"/>
    <path id="Path_1221" data-name="Path 1221" d="M2363.116,4647.468a.564.564,0,0,1-.561.56h-2.519a.564.564,0,0,1-.561-.56v-5.6a.564.564,0,0,1,.561-.56h2.519a.564.564,0,0,1,.561.56Zm-1.961-1.68a.56.56,0,1,0,.56.56A.564.564,0,0,0,2361.155,4645.788Zm11.839-2.616a2.352,2.352,0,0,1,.131.665,3.764,3.764,0,0,0-.376,2.222,1.782,1.782,0,0,1-.473.822,2.113,2.113,0,0,1-.428,1.584,2.168,2.168,0,0,1-1.724.683H2369a10.487,10.487,0,0,1-3.378-.735,6.054,6.054,0,0,0-1.381-.385.575.575,0,0,1-.561-.56v-5.608a.586.586,0,0,1,.534-.561c.324-.026,1.163-1.067,1.549-1.574a12.07,12.07,0,0,1,.884-1.05,2.643,2.643,0,0,0,.542-1.374,2.561,2.561,0,0,1,.578-1.426.556.556,0,0,1,.393-.166c1.961,0,1.961,1.566,1.961,2.24a3.433,3.433,0,0,1-.49,1.68,2.067,2.067,0,0,0-.254.56h2.424a1.7,1.7,0,0,1,1.68,1.681A2.069,2.069,0,0,1,2372.995,4643.172Z" transform="translate(-1367.475 -3997.228)" fill="#fff"/>
  </g>
</svg>
