<svg xmlns="http://www.w3.org/2000/svg" width="30" height="28" viewBox="0 0 30 28">
  <g id="Group_2246" data-name="Group 2246" transform="translate(0.001 -17.068)">
    <path id="Path_1165" data-name="Path 1165" d="M5.125,33.068H3.03C1.469,33.068,0,32.318,0,30.584c0-1.265-.047-5.516,1.937-5.516C2.265,25.068,3.89,26.4,6,26.4a6.277,6.277,0,0,0,2.079-.359A7.467,7.467,0,0,0,8,27.068a7.066,7.066,0,0,0,1.265,4A5.526,5.526,0,0,0,5.125,33.068Zm.875-8a4,4,0,1,1,4-4A4.008,4.008,0,0,1,6,25.068Zm15.828,20H8.171A3.832,3.832,0,0,1,4,41.021c0-3.532.828-8.953,5.407-8.953.531,0,2.468,2.172,5.593,2.172s5.063-2.172,5.593-2.172c4.579,0,5.407,5.421,5.407,8.953A3.832,3.832,0,0,1,21.827,45.068ZM15,33.068a6,6,0,1,1,6-6A6,6,0,0,1,15,33.068Zm9-8a4,4,0,1,1,4-4A4.008,4.008,0,0,1,24,25.068Zm2.969,8H24.874a5.526,5.526,0,0,0-4.14-2,7.066,7.066,0,0,0,1.265-4,7.467,7.467,0,0,0-.079-1.031A6.276,6.276,0,0,0,24,26.4c2.109,0,3.735-1.328,4.063-1.328,1.984,0,1.937,4.251,1.937,5.516C30,32.318,28.53,33.068,26.969,33.068Z" transform="translate(0)" fill="#2d58a8"/>
    <rect id="Rectangle_1155" data-name="Rectangle 1155" width="30" height="5.974" transform="translate(-0.001 38.175)" fill="#fff"/>
    <rect id="Rectangle_1156" data-name="Rectangle 1156" width="30" height="5.974" transform="translate(-0.001 39.094)" fill="#2d58a8"/>
    <path id="Path_1166" data-name="Path 1166" d="M26.014,408.326l-1.12,1.093.266,1.543a.483.483,0,0,1,0,.062c0,.08-.037.154-.126.154a.25.25,0,0,1-.123-.037l-1.386-.729-1.386.729a.26.26,0,0,1-.123.037c-.09,0-.13-.074-.13-.154a.488.488,0,0,1,.006-.062l.266-1.543-1.124-1.093a.241.241,0,0,1-.077-.148c0-.093.1-.13.173-.142l1.55-.225.694-1.4c.028-.058.08-.126.151-.126s.123.068.151.126l.694,1.4,1.55.225c.074.012.173.049.173.142A.23.23,0,0,1,26.014,408.326Z" transform="translate(-19.637 -366.802)" fill="#fff"/>
    <path id="Path_1167" data-name="Path 1167" d="M122.464,408.326l-1.12,1.093.266,1.543a.483.483,0,0,1,0,.062c0,.08-.037.154-.126.154a.25.25,0,0,1-.123-.037l-1.386-.729-1.386.729a.26.26,0,0,1-.123.037c-.09,0-.13-.074-.13-.154a.488.488,0,0,1,.006-.062l.266-1.543-1.124-1.093a.241.241,0,0,1-.077-.148c0-.093.1-.13.173-.142l1.55-.225.694-1.4c.028-.058.08-.126.151-.126s.123.068.151.126l.694,1.4,1.55.225c.074.012.173.049.173.142A.23.23,0,0,1,122.464,408.326Z" transform="translate(-110.629 -366.802)" fill="#fff"/>
    <path id="Path_1168" data-name="Path 1168" d="M218.914,408.326l-1.12,1.093.266,1.543a.471.471,0,0,1,0,.062c0,.08-.037.154-.126.154a.25.25,0,0,1-.123-.037l-1.386-.729-1.386.729a.26.26,0,0,1-.123.037c-.09,0-.13-.074-.13-.154a.49.49,0,0,1,.006-.062l.266-1.543-1.124-1.093a.241.241,0,0,1-.077-.148c0-.093.1-.13.173-.142l1.55-.225.694-1.4c.028-.058.08-.126.151-.126s.123.068.151.126l.694,1.4,1.55.225c.074.012.173.049.173.142A.23.23,0,0,1,218.914,408.326Z" transform="translate(-201.509 -366.802)" fill="#fff"/>
    <path id="Path_1169" data-name="Path 1169" d="M315.365,408.326l-1.12,1.093.266,1.543a.471.471,0,0,1,0,.062c0,.08-.037.154-.126.154a.25.25,0,0,1-.123-.037l-1.386-.729-1.386.729a.26.26,0,0,1-.123.037c-.09,0-.13-.074-.13-.154a.476.476,0,0,1,.006-.062l.266-1.543-1.124-1.093a.241.241,0,0,1-.077-.148c0-.093.1-.13.173-.142l1.55-.225.694-1.4c.028-.058.08-.126.151-.126s.123.068.151.126l.694,1.4,1.55.225c.074.012.173.049.173.142A.231.231,0,0,1,315.365,408.326Z" transform="translate(-292.39 -366.802)" fill="#fff"/>
    <path id="Path_1170" data-name="Path 1170" d="M411.814,408.326l-1.12,1.093.266,1.543a.482.482,0,0,1,0,.062c0,.08-.037.154-.126.154a.25.25,0,0,1-.123-.037l-1.386-.729-1.386.729a.26.26,0,0,1-.123.037c-.09,0-.13-.074-.13-.154a.476.476,0,0,1,.006-.062l.266-1.543-1.124-1.093a.241.241,0,0,1-.077-.148c0-.093.1-.13.173-.142l1.55-.225.694-1.4c.028-.058.08-.126.151-.126s.123.068.151.126l.694,1.4,1.55.225c.074.012.173.049.173.142A.23.23,0,0,1,411.814,408.326Z" transform="translate(-383.396 -366.802)" fill="#fff"/>
  </g>
</svg>
