<svg xmlns="http://www.w3.org/2000/svg" width="31" height="31" viewBox="0 0 31 31">
  <path id="BULLSEYE" d="M4458.91,5221.589a15.5,15.5,0,1,1,15.5-15.5A15.5,15.5,0,0,1,4458.91,5221.589Zm0-28.095a12.594,12.594,0,1,0,12.591,12.6A12.6,12.6,0,0,0,4458.91,5193.495Zm0,21.8a9.2,9.2,0,1,1,9.2-9.2A9.2,9.2,0,0,1,4458.91,5215.291Zm0-15.5a6.3,6.3,0,1,0,6.294,6.3A6.3,6.3,0,0,0,4458.91,5199.791Zm0,9.2a2.906,2.906,0,1,1,2.9-2.9A2.907,2.907,0,0,1,4458.91,5208.994Z" transform="translate(-4443.41 -5190.59)" fill="#2d58a8" fill-rule="evenodd"/>
</svg>
