<svg xmlns="http://www.w3.org/2000/svg" width="31" height="25.599" viewBox="0 0 31 25.599">
  <path id="Path_1218" data-name="Path 1218" d="M11.7,37.634a.209.209,0,0,0,.08.161v.04l.121.121h.04a.209.209,0,0,0,.161.08h0l16,5.626a.362.362,0,0,0,.2.04.843.843,0,0,0,.442-.161L42.325,29.958a.6.6,0,0,0,.161-.563.632.632,0,0,0-.4-.442l-.643-.161a17.609,17.609,0,0,1-.161-2.09,7.743,7.743,0,0,1,.04-.965l.965-.965a.6.6,0,0,0,.161-.563.632.632,0,0,0-.4-.442l-16-5.626a.571.571,0,0,0-.643.161L11.862,31.847h0c-.04.04-.08.08-.08.121v.04c0,.04-.04.04-.04.08v.08a17.006,17.006,0,0,0-.04,5.466Zm7.8-2.17,7.515,2.652a18.3,18.3,0,0,0-.161,2.13,13.669,13.669,0,0,0,.121,1.808L13.308,37.232l-.482-.161a12.527,12.527,0,0,1-.161-2.17,13.669,13.669,0,0,1,.121-1.808Zm21.179-6.551-.723.723L27.776,41.773c-.04-.482-.08-1-.08-1.527a13.826,13.826,0,0,1,.121-1.849l.281.121a.362.362,0,0,0,.2.04.843.843,0,0,0,.442-.161l7.676-7.676,4.1-4.1v.121A13.151,13.151,0,0,0,40.677,28.913Z" transform="translate(-11.5 -18.103)" fill="#2d58a8"/>
</svg>
