<svg xmlns="http://www.w3.org/2000/svg" xmlns:xlink="http://www.w3.org/1999/xlink" width="19.409" height="16" viewBox="0 0 19.409 16">
  <defs>
    <clipPath id="clip-path">
      <rect width="19.409" height="16" fill="none"/>
    </clipPath>
  </defs>
  <g id="Nav_MyHR" clip-path="url(#clip-path)">
    <path id="Nav_MyHR-2" data-name="Nav_MyHR" d="M19.409,56.583v.6H15c-.671-.3-1.445-.619-2.317-.93a.873.873,0,0,1-.227-.157,1.032,1.032,0,0,1,.172-.433,4.8,4.8,0,0,0,1.08-3.3,5.856,5.856,0,0,0-.585-2.83,3.137,3.137,0,0,0-2.46-1.65c.11-1.406.68-2.945,2.9-2.945,2.543,0,2.918,2.028,2.918,3.554a3.216,3.216,0,0,1-.93,2.67,1.6,1.6,0,0,0-.363,1.125,1.2,1.2,0,0,0,.743.718C18.891,53.975,19.409,55.679,19.409,56.583Zm-7.347.447a1.214,1.214,0,0,1-.717-.743,1.74,1.74,0,0,1,.343-1.164c.037-.043.887-.707.887-2.763,0-1.58-.359-3.678-2.789-3.678S7,50.781,7,52.36c0,2.062.855,2.725.869,2.739a1.747,1.747,0,0,1,.363,1.188,1.208,1.208,0,0,1-.714.743C4.68,58.037,2.5,59.2,2.5,60.132v.8H17.021v-.8C17.021,59.2,14.9,58.037,12.062,57.03Zm-5.169-.778a.841.841,0,0,0,.227-.16,1.053,1.053,0,0,0-.18-.443,4.449,4.449,0,0,1-1.071-3.29,5.855,5.855,0,0,1,.585-2.83,3.13,3.13,0,0,1,2.4-1.642c-.109-1.408-.677-2.953-2.9-2.953-2.543,0-2.918,2.028-2.918,3.554,0,1.992.895,2.633.909,2.647a1.608,1.608,0,0,1,.38,1.148A1.223,1.223,0,0,1,3.579,53C.612,53.975,0,55.679,0,56.583v.6H4.564C5.239,56.879,6.017,56.565,6.893,56.253Z" transform="translate(0 -44.935)" fill="#fff" fill-rule="evenodd"/>
  </g>
</svg>
