<svg xmlns="http://www.w3.org/2000/svg" xmlns:xlink="http://www.w3.org/1999/xlink" width="20.102" height="16" viewBox="0 0 20.102 16">
  <defs>
    <clipPath id="clip-path">
      <rect width="20.102" height="16" fill="none"/>
    </clipPath>
  </defs>
  <g id="Nav_HomeIcon" clip-path="url(#clip-path)">
    <path id="Path_76" data-name="Path 76" d="M911.17,4061.431a.418.418,0,0,1-.262.137h-.038a.394.394,0,0,1-.262-.088l-8.627-7.193-8.628,7.193a.428.428,0,0,1-.3.088.418.418,0,0,1-.262-.137l-.773-.923a.408.408,0,0,1,.05-.561l8.964-7.468a1.535,1.535,0,0,1,1.9,0l3.042,2.543v-2.431a.394.394,0,0,1,.4-.4h2.394a.394.394,0,0,1,.4.4v5.086l2.73,2.27a.408.408,0,0,1,.05.561Zm-2.008,5.922a.8.8,0,0,1-.8.8h-4.788v-4.788h-3.192v4.788H895.6a.8.8,0,0,1-.8-.8v-5.985c0-.024.013-.05.013-.075l7.169-5.91,7.169,5.91a.156.156,0,0,1,.013.075Z" transform="translate(-891.93 -4052.152)" fill="#fff"/>
  </g>
</svg>
