<svg xmlns="http://www.w3.org/2000/svg" width="14" height="10" viewBox="0 0 14 10">
  <path id="Path_1" data-name="Path 1" d="M13.414,6.818H.583A.548.548,0,0,1,0,6.318v-1a.551.551,0,0,1,.586-.5H13.417a.548.548,0,0,1,.583.5v1A.551.551,0,0,1,13.414,6.818Zm0,4H.583a.548.548,0,0,1-.583-.5v-1a.551.551,0,0,1,.586-.5H13.417a.548.548,0,0,1,.583.5v1A.551.551,0,0,1,13.414,10.818Zm0,4H.583a.548.548,0,0,1-.583-.5v-1a.551.551,0,0,1,.586-.5H13.417a.548.548,0,0,1,.583.5v1A.551.551,0,0,1,13.414,14.818Z" transform="translate(0 -4.818)" fill="#fff"/>
</svg>
