<svg xmlns="http://www.w3.org/2000/svg" xmlns:xlink="http://www.w3.org/1999/xlink" width="16" height="16" viewBox="0 0 16 16">
  <defs>
    <clipPath id="clip-path">
      <rect width="16" height="16" fill="none"/>
    </clipPath>
  </defs>
  <g id="Nav_help" clip-path="url(#clip-path)">
    <path id="Path_177" data-name="Path 177" d="M3417.7,4297.465a8,8,0,1,1,8-8A8,8,0,0,1,3417.7,4297.465Zm.208-13.333a4.232,4.232,0,0,0-3.865,2.219.329.329,0,0,0,.084.438l1.376,1.042a.319.319,0,0,0,.2.062.327.327,0,0,0,.26-.125,4.625,4.625,0,0,1,.9-.958,1.669,1.669,0,0,1,.9-.25c.667,0,1.282.427,1.282.886,0,.542-.281.813-.917,1.1a2.833,2.833,0,0,0-1.75,2.208v.375a.329.329,0,0,0,.334.333h2a.329.329,0,0,0,.334-.333,1.568,1.568,0,0,1,.791-1.031,2.893,2.893,0,0,0,1.875-2.636C3421.7,4285.558,3419.7,4284.132,3417.908,4284.132Zm1.125,8.333a.329.329,0,0,0-.334-.333h-2a.329.329,0,0,0-.334.333v2a.329.329,0,0,0,.334.333h2a.329.329,0,0,0,.334-.333Z" transform="translate(-3409.7 -4281.465)" fill="#fff"/>
  </g>
</svg>
