<svg xmlns="http://www.w3.org/2000/svg" width="16" height="16" viewBox="0 0 16 16">
  <path id="Path_2189" data-name="Path 2189" d="M1943.219,3936.4a.4.4,0,0,1-.292.375l-1.927.292a5.939,5.939,0,0,1-.406.948c.354.51.729.968,1.115,1.438a.409.409,0,0,1,.1.26.349.349,0,0,1-.093.239c-.251.334-1.657,1.865-2.011,1.865a.526.526,0,0,1-.271-.094l-1.437-1.124a6.284,6.284,0,0,1-.948.4,13.79,13.79,0,0,1-.3,1.937.382.382,0,0,1-.375.292h-2.313a.373.373,0,0,1-.375-.313l-.291-1.916a6.108,6.108,0,0,1-.937-.385l-1.469,1.114a.4.4,0,0,1-.261.094.373.373,0,0,1-.26-.115,12.943,12.943,0,0,1-1.718-1.75.4.4,0,0,1-.073-.239.392.392,0,0,1,.083-.24c.354-.479.739-.937,1.094-1.427a5.582,5.582,0,0,1-.427-1.031l-1.906-.281a.38.38,0,0,1-.3-.375v-2.312a.4.4,0,0,1,.281-.375l1.938-.292a5.5,5.5,0,0,1,.406-.958c-.354-.5-.729-.969-1.115-1.438a.382.382,0,0,1-.1-.25.406.406,0,0,1,.093-.239c.251-.344,1.657-1.865,2.011-1.865a.467.467,0,0,1,.271.1l1.438,1.115a6.215,6.215,0,0,1,.948-.4,13.781,13.781,0,0,1,.3-1.937.382.382,0,0,1,.375-.292h2.313a.372.372,0,0,1,.375.313l.292,1.917a6.078,6.078,0,0,1,.937.385l1.479-1.114a.351.351,0,0,1,.25-.094.415.415,0,0,1,.26.1,13.153,13.153,0,0,1,1.718,1.771.352.352,0,0,1,.073.229.393.393,0,0,1-.083.24c-.354.479-.74.937-1.094,1.427a5.788,5.788,0,0,1,.427,1.021l1.906.292a.38.38,0,0,1,.3.375Zm-8-3.843a2.667,2.667,0,1,0,2.667,2.667A2.672,2.672,0,0,0,1935.219,3932.552Z" transform="translate(-1927.219 -3927.219)" fill="#aaa"/>
</svg>
