<svg xmlns="http://www.w3.org/2000/svg" width="11" height="243" viewBox="0 0 11 243">
  <g id="SidebarCollapseIcon_4" data-name="SidebarCollapseIcon – 4" transform="translate(0.5)">
    <line id="adjustment_bar" data-name="adjustment bar" y2="243" fill="none" stroke="#bbb" stroke-width="1"/>
    <g id="Group_2012" data-name="Group 2012" transform="translate(0.5)">
      <g id="Tab_-_Normal" data-name="Tab - Normal">
        <path id="Background" d="M0,0H8a2,2,0,0,1,2,2V38a2,2,0,0,1-2,2H0a0,0,0,0,1,0,0V0A0,0,0,0,1,0,0Z" fill="#1e51bf"/>
      </g>
      <path id="Path_2113" data-name="Path 2113" d="M1.612,8.9a.347.347,0,0,1-.494,0L.1,7.936a.347.347,0,0,1,0-.494L3.018,4.527.1,1.612a.348.348,0,0,1,0-.494L1.118.1a.348.348,0,0,1,.494,0L5.686,4.28a.348.348,0,0,1,0,.494Z" transform="translate(7.899 24.495) rotate(180)" fill="#fff"/>
    </g>
    <g id="Group_2009" data-name="Group 2009" transform="translate(0.5)">
      <g id="Group_2008" data-name="Group 2008">
        <g id="Tab_-_Normal-2" data-name="Tab - Normal">
          <path id="Background-2" data-name="Background" d="M0,0H8a2,2,0,0,1,2,2V38a2,2,0,0,1-2,2H0a0,0,0,0,1,0,0V0A0,0,0,0,1,0,0Z" fill="#1e51bf"/>
        </g>
        <path id="Path_2113-2" data-name="Path 2113" d="M1.612,8.9a.347.347,0,0,1-.494,0L.1,7.936a.347.347,0,0,1,0-.494L3.018,4.527.1,1.612a.348.348,0,0,1,0-.494L1.118.1a.348.348,0,0,1,.494,0L5.686,4.28a.348.348,0,0,1,0,.494Z" transform="translate(2.11 15.495)" fill="#fff"/>
      </g>
      <g id="Group_1957" data-name="Group 1957" transform="translate(0 45)">
        <path id="Tab_-_Normal-3" data-name="Tab - Normal" d="M0,0H8a2,2,0,0,1,2,2V38a2,2,0,0,1-2,2H0a0,0,0,0,1,0,0V0A0,0,0,0,1,0,0Z" fill="#1e51bf"/>
        <path id="Union_41" data-name="Union 41" d="M0,15.5V12H3.5v3.5Zm0-6V6H3.5V9.5Zm0-6V0H3.5V3.5Z" transform="translate(3 12)" fill="#fff"/>
      </g>
    </g>
  </g>
</svg>
