<svg xmlns="http://www.w3.org/2000/svg" xmlns:xlink="http://www.w3.org/1999/xlink" width="10.5" height="238" viewBox="0 0 10.5 238">
  <defs>
    <clipPath id="clip-path">
      <rect width="10.5" height="238" fill="none"/>
    </clipPath>
  </defs>
  <g id="SidebarCollapseIcon_1" data-name="SidebarCollapseIcon – 1" clip-path="url(#clip-path)">
    <line id="adjustment_bar" data-name="adjustment bar" y2="238" fill="none" stroke="#bbb" stroke-width="1"/>
    <g id="Group_2012" data-name="Group 2012">
      <g id="Tab_-_Normal" data-name="Tab - Normal" transform="translate(0.5)">
        <path id="Background" d="M0,0H8a2,2,0,0,1,2,2V38a2,2,0,0,1-2,2H0a0,0,0,0,1,0,0V0A0,0,0,0,1,0,0Z" fill="#1e51bf"/>
      </g>
      <path id="Path_2113" data-name="Path 2113" d="M110.612,9.481a.347.347,0,0,1-.494,0L109.1,8.521a.347.347,0,0,1,0-.494l2.915-2.915L109.1,2.2a.348.348,0,0,1,0-.494L110.118.687a.348.348,0,0,1,.494,0l4.074,4.178a.348.348,0,0,1,0,.494Z" transform="translate(117.399 25.079) rotate(180)" fill="#fff"/>
    </g>
  </g>
</svg>
