<svg xmlns="http://www.w3.org/2000/svg" width="11" height="480" viewBox="0 0 11 480">
  <g id="SideBar-_New_Concept_-_Flat_tree_without_additional_information_scrollbar_included_" data-name="SideBar- New Concept - Flat tree (without additional information, scrollbar included)" transform="translate(0.5 3)">
    <g id="Sidebar_Collpase" data-name="Sidebar Collpase" transform="translate(0 -3)">
      <g id="Tab_-_Normal" data-name="Tab - Normal" transform="translate(0.5)">
        <path id="Background" d="M0,0H8a2,2,0,0,1,2,2V38a2,2,0,0,1-2,2H0a0,0,0,0,1,0,0V0A0,0,0,0,1,0,0Z" fill="#1e51bf"/>
      </g>
      <g id="Icon_and_Tooltip_-_Collapse" data-name="Icon and Tooltip - Collapse" transform="translate(7.5 25) rotate(180)">
        <path id="Icon_Collapse" d="M4,0,8,4H0Z" transform="translate(0 8) rotate(-90)" fill="#fff"/>
      </g>
      <line id="adjustment_bar" data-name="adjustment bar" y2="480" fill="none" stroke="#bbb" stroke-width="1"/>
      <g id="Group_4836" data-name="Group 4836" transform="translate(-14.5 -5)">
        <path id="Tab_-_Normal-2" data-name="Tab - Normal" d="M0,0H8a2,2,0,0,1,2,2V38a2,2,0,0,1-2,2H0a0,0,0,0,1,0,0V0A0,0,0,0,1,0,0Z" transform="translate(15 50)" fill="#1e51bf"/>
        <path id="Union_41" data-name="Union 41" d="M-18117,9032v-3.5h3.5v3.5Zm0-6v-3.5h3.5v3.5Zm0-6v-3.5h3.5v3.5Z" transform="translate(18135.002 -8954.5)" fill="#fff"/>
      </g>
    </g>
  </g>
</svg>
