<svg xmlns="http://www.w3.org/2000/svg" width="14" height="14" viewBox="0 0 14 14">
  <path id="Path_1379" data-name="Path 1379" d="M11.776,3.245a.88.88,0,0,1-1.24,0L7-.292,3.464,3.245a.844.844,0,0,1-.62.255.844.844,0,0,1-.62-.255L.255,1.276A.844.844,0,0,1,0,.656.844.844,0,0,1,.255.036L3.792-3.5.255-7.036A.844.844,0,0,1,0-7.656a.844.844,0,0,1,.255-.62l1.969-1.969a.844.844,0,0,1,.62-.255.844.844,0,0,1,.62.255L7-6.708l3.536-3.536a.844.844,0,0,1,.62-.255.844.844,0,0,1,.62.255l1.969,1.969a.844.844,0,0,1,.255.62.844.844,0,0,1-.255.62L10.208-3.5,13.745.036A.844.844,0,0,1,14,.656a.844.844,0,0,1-.255.62Z" transform="translate(0 10.5)" fill="#1e51bf"/>
</svg>
