<svg xmlns="http://www.w3.org/2000/svg" width="14" height="14" viewBox="0 0 14 14">
  <path id="Path_1378" data-name="Path 1378" d="M547.094,4288.931l-7.688,7.688h-3.844v-3.845l7.689-7.687Zm-7.338,5.665-2.172-2.172-.841.841v.988h1.183v1.184h.989Zm3.789-7.938a.217.217,0,0,0-.157.064l-5.009,5.009a.217.217,0,0,0-.065.157.194.194,0,0,0,.2.2.217.217,0,0,0,.157-.064l5.009-5.009a.217.217,0,0,0,.065-.157A.2.2,0,0,0,543.545,4286.657Zm5.674.148-1.534,1.533-3.844-3.844,1.534-1.525a1.162,1.162,0,0,1,.832-.351,1.2,1.2,0,0,1,.841.351l2.172,2.163a1.227,1.227,0,0,1,.342.841A1.191,1.191,0,0,1,549.219,4286.806Z" transform="translate(-535.561 -4282.619)" fill="#1e51bf"/>
</svg>
