<svg xmlns="http://www.w3.org/2000/svg" width="11.429" height="14" viewBox="0 0 11.429 14">
  <path id="Path_100" data-name="Path 100" d="M5.429,11.429H2.571A2.572,2.572,0,0,1,0,8.857V2.571A2.572,2.572,0,0,1,2.571,0H5.43a.294.294,0,0,1,.285.286c0,.25.116.857-.285.857H2.571A1.433,1.433,0,0,0,1.143,2.571V8.857a1.433,1.433,0,0,0,1.428,1.429H5.143c.223,0,.572-.045.572.286C5.715,10.822,5.831,11.429,5.429,11.429Zm8.4-5.313L8.974,10.973a.569.569,0,0,1-.4.17A.576.576,0,0,1,8,10.572V8H4a.576.576,0,0,1-.572-.571V4A.576.576,0,0,1,4,3.428H8V.857A.576.576,0,0,1,8.572.286a.569.569,0,0,1,.4.17l4.857,4.857a.561.561,0,0,1,0,.8Z" transform="translate(0 14) rotate(-90)" fill="#1e51bf"/>
</svg>
