<svg xmlns="http://www.w3.org/2000/svg" width="11.667" height="14" viewBox="0 0 11.667 14">
  <path id="Path_245" data-name="Path 245" d="M3726.885,4412.821l-4.958,4.958a.58.58,0,0,1-.994-.41v-2.625h-4.083a.587.587,0,0,1-.583-.583v-3.5a.588.588,0,0,1,.583-.583h4.083v-2.625a.588.588,0,0,1,.583-.583.582.582,0,0,1,.411.173l4.958,4.959a.572.572,0,0,1,0,.82Zm3.382,2.8a2.626,2.626,0,0,1-2.624,2.625h-2.918a.3.3,0,0,1-.291-.292c0-.255-.118-.875.291-.875h2.918a1.463,1.463,0,0,0,1.458-1.458V4409.2a1.463,1.463,0,0,0-1.458-1.458h-2.626c-.227,0-.583.046-.583-.292,0-.255-.118-.875.291-.875h2.918a2.626,2.626,0,0,1,2.624,2.625Z" transform="translate(4418.244 -3716.267) rotate(90)" fill="#1e51bf"/>
</svg>
