<svg xmlns="http://www.w3.org/2000/svg" width="14" height="14" viewBox="0 0 14 14">
  <path id="Path_35" data-name="Path 35" d="M13.772-7.256a.294.294,0,0,0-.292-.292H11.73a.282.282,0,0,0-.273.21,7.394,7.394,0,0,1-.483,1.066A4.653,4.653,0,0,1,7-4.048,4.658,4.658,0,0,1,3.828-5.305L5.077-6.554a.58.58,0,0,0,.173-.41.587.587,0,0,0-.583-.583H.583A.587.587,0,0,0,0-6.964v4.083A.587.587,0,0,0,.583-2.3a.58.58,0,0,0,.41-.173L2.169-3.647A6.986,6.986,0,0,0,6.964-1.714a6.919,6.919,0,0,0,6.8-5.478A.155.155,0,0,0,13.772-7.256ZM14-14.548a.587.587,0,0,0-.583-.583.58.58,0,0,0-.41.173l-1.185,1.176A7.077,7.077,0,0,0,7-15.714,6.957,6.957,0,0,0,.164-10.236v.064a.294.294,0,0,0,.292.292H2.27a.282.282,0,0,0,.273-.21,7.394,7.394,0,0,1,.483-1.066A4.653,4.653,0,0,1,7-13.381a4.688,4.688,0,0,1,3.181,1.249L8.923-10.874a.58.58,0,0,0-.173.41.587.587,0,0,0,.583.583h4.083A.587.587,0,0,0,14-10.464Z" transform="translate(0 15.714)" fill="#1e51bf"/>
</svg>
