<svg xmlns="http://www.w3.org/2000/svg" width="14" height="14" viewBox="0 0 14 14">
  <path id="Path_23" data-name="Path 23" d="M14-3.187a.723.723,0,0,1-.219.531.723.723,0,0,1-.531.219H8.938V1.875a.747.747,0,0,1-.75.75H5.813a.747.747,0,0,1-.75-.75V-2.437H.75a.723.723,0,0,1-.531-.219A.723.723,0,0,1,0-3.187V-5.562a.723.723,0,0,1,.219-.531A.723.723,0,0,1,.75-6.313H5.063v-4.312a.723.723,0,0,1,.219-.531.723.723,0,0,1,.531-.219H8.188a.723.723,0,0,1,.531.219.723.723,0,0,1,.219.531v4.312H13.25a.723.723,0,0,1,.531.219A.723.723,0,0,1,14-5.562Z" transform="translate(0 11.375)" fill="#1e51bf"/>
</svg>
